<mxfile host="app.diagrams.net" modified="2023-01-22T18:57:19.741Z" agent="5.0 (Windows NT 10.0; Win64; x64) AppleWebKit/537.36 (KHTML, like Gecko) Chrome/108.0.0.0 Safari/537.36 OPR/94.0.0.0" etag="63f4SKLun98dVrzJASn-" version="20.8.8" type="github">
  <diagram name="Página-1" id="OcGhS874R1WnHsH4suTy">
    <mxGraphModel dx="658" dy="794" grid="1" gridSize="10" guides="1" tooltips="1" connect="1" arrows="1" fold="1" page="1" pageScale="1" pageWidth="827" pageHeight="1169" math="0" shadow="0">
      <root>
        <mxCell id="0" />
        <mxCell id="1" parent="0" />
        <mxCell id="tEOXZ-O5XsBAkcaOIRaJ-10" value="" style="rounded=0;whiteSpace=wrap;html=1;fillColor=none;shadow=0;" vertex="1" parent="1">
          <mxGeometry x="140" y="60" width="570" height="460" as="geometry" />
        </mxCell>
        <mxCell id="tEOXZ-O5XsBAkcaOIRaJ-7" style="edgeStyle=orthogonalEdgeStyle;rounded=0;orthogonalLoop=1;jettySize=auto;html=1;exitX=1;exitY=0.3333333333333333;exitDx=0;exitDy=0;exitPerimeter=0;entryX=0;entryY=0.5;entryDx=0;entryDy=0;" edge="1" parent="1" source="tEOXZ-O5XsBAkcaOIRaJ-1" target="tEOXZ-O5XsBAkcaOIRaJ-3">
          <mxGeometry relative="1" as="geometry" />
        </mxCell>
        <mxCell id="tEOXZ-O5XsBAkcaOIRaJ-14" style="edgeStyle=orthogonalEdgeStyle;rounded=0;orthogonalLoop=1;jettySize=auto;html=1;exitX=1;exitY=0.3333333333333333;exitDx=0;exitDy=0;exitPerimeter=0;entryX=0;entryY=0.5;entryDx=0;entryDy=0;" edge="1" parent="1" source="tEOXZ-O5XsBAkcaOIRaJ-1" target="tEOXZ-O5XsBAkcaOIRaJ-13">
          <mxGeometry relative="1" as="geometry" />
        </mxCell>
        <mxCell id="tEOXZ-O5XsBAkcaOIRaJ-1" value="Organismo &lt;br&gt;Oficial&lt;br&gt;(Regional)" style="shape=umlActor;verticalLabelPosition=bottom;verticalAlign=top;html=1;outlineConnect=0;" vertex="1" parent="1">
          <mxGeometry x="40" y="160" width="40" height="80" as="geometry" />
        </mxCell>
        <mxCell id="tEOXZ-O5XsBAkcaOIRaJ-3" value="Estar confinado" style="ellipse;whiteSpace=wrap;html=1;" vertex="1" parent="1">
          <mxGeometry x="160" y="110" width="120" height="40" as="geometry" />
        </mxCell>
        <mxCell id="tEOXZ-O5XsBAkcaOIRaJ-8" style="edgeStyle=orthogonalEdgeStyle;rounded=0;orthogonalLoop=1;jettySize=auto;html=1;exitX=1;exitY=0.3333333333333333;exitDx=0;exitDy=0;exitPerimeter=0;entryX=0;entryY=0.5;entryDx=0;entryDy=0;" edge="1" parent="1" source="tEOXZ-O5XsBAkcaOIRaJ-4" target="tEOXZ-O5XsBAkcaOIRaJ-5">
          <mxGeometry relative="1" as="geometry" />
        </mxCell>
        <mxCell id="tEOXZ-O5XsBAkcaOIRaJ-4" value="Smartphone/&lt;br&gt;Compañía telefónica" style="shape=umlActor;verticalLabelPosition=bottom;verticalAlign=top;html=1;outlineConnect=0;" vertex="1" parent="1">
          <mxGeometry x="40" y="360" width="40" height="80" as="geometry" />
        </mxCell>
        <mxCell id="tEOXZ-O5XsBAkcaOIRaJ-5" value="Enviar ubicación" style="ellipse;whiteSpace=wrap;html=1;" vertex="1" parent="1">
          <mxGeometry x="160" y="320" width="120" height="40" as="geometry" />
        </mxCell>
        <mxCell id="tEOXZ-O5XsBAkcaOIRaJ-19" style="edgeStyle=orthogonalEdgeStyle;rounded=0;orthogonalLoop=1;jettySize=auto;html=1;exitX=0;exitY=0.3333333333333333;exitDx=0;exitDy=0;exitPerimeter=0;" edge="1" parent="1" source="tEOXZ-O5XsBAkcaOIRaJ-6" target="tEOXZ-O5XsBAkcaOIRaJ-18">
          <mxGeometry relative="1" as="geometry" />
        </mxCell>
        <mxCell id="tEOXZ-O5XsBAkcaOIRaJ-21" style="edgeStyle=orthogonalEdgeStyle;rounded=0;orthogonalLoop=1;jettySize=auto;html=1;exitX=0;exitY=0.3333333333333333;exitDx=0;exitDy=0;exitPerimeter=0;entryX=1;entryY=0.5;entryDx=0;entryDy=0;" edge="1" parent="1" source="tEOXZ-O5XsBAkcaOIRaJ-6" target="tEOXZ-O5XsBAkcaOIRaJ-20">
          <mxGeometry relative="1" as="geometry" />
        </mxCell>
        <mxCell id="tEOXZ-O5XsBAkcaOIRaJ-6" value="Policia" style="shape=umlActor;verticalLabelPosition=bottom;verticalAlign=top;html=1;outlineConnect=0;" vertex="1" parent="1">
          <mxGeometry x="720" y="160" width="40" height="80" as="geometry" />
        </mxCell>
        <mxCell id="tEOXZ-O5XsBAkcaOIRaJ-12" value="Quietito" style="text;html=1;align=center;verticalAlign=middle;resizable=0;points=[];autosize=1;strokeColor=none;fillColor=none;" vertex="1" parent="1">
          <mxGeometry x="395" y="25" width="60" height="30" as="geometry" />
        </mxCell>
        <mxCell id="tEOXZ-O5XsBAkcaOIRaJ-13" value="Estar libre" style="ellipse;whiteSpace=wrap;html=1;" vertex="1" parent="1">
          <mxGeometry x="160" y="200" width="120" height="40" as="geometry" />
        </mxCell>
        <mxCell id="tEOXZ-O5XsBAkcaOIRaJ-22" style="edgeStyle=orthogonalEdgeStyle;rounded=0;orthogonalLoop=1;jettySize=auto;html=1;exitX=0;exitY=0.3333333333333333;exitDx=0;exitDy=0;exitPerimeter=0;entryX=1;entryY=0.5;entryDx=0;entryDy=0;" edge="1" parent="1" source="tEOXZ-O5XsBAkcaOIRaJ-15" target="tEOXZ-O5XsBAkcaOIRaJ-17">
          <mxGeometry relative="1" as="geometry" />
        </mxCell>
        <mxCell id="tEOXZ-O5XsBAkcaOIRaJ-15" value="Gobierno" style="shape=umlActor;verticalLabelPosition=bottom;verticalAlign=top;html=1;outlineConnect=0;" vertex="1" parent="1">
          <mxGeometry x="720" y="360" width="40" height="80" as="geometry" />
        </mxCell>
        <mxCell id="tEOXZ-O5XsBAkcaOIRaJ-17" value="Recibe estadistica" style="ellipse;whiteSpace=wrap;html=1;" vertex="1" parent="1">
          <mxGeometry x="490" y="380" width="120" height="40" as="geometry" />
        </mxCell>
        <mxCell id="tEOXZ-O5XsBAkcaOIRaJ-18" value="Acceder listado" style="ellipse;whiteSpace=wrap;html=1;" vertex="1" parent="1">
          <mxGeometry x="520" y="120" width="120" height="40" as="geometry" />
        </mxCell>
        <mxCell id="tEOXZ-O5XsBAkcaOIRaJ-20" value="Identificar y &lt;br&gt;denunciar" style="ellipse;whiteSpace=wrap;html=1;" vertex="1" parent="1">
          <mxGeometry x="520" y="280" width="120" height="40" as="geometry" />
        </mxCell>
        <mxCell id="tEOXZ-O5XsBAkcaOIRaJ-26" style="rounded=0;orthogonalLoop=1;jettySize=auto;html=1;exitX=1;exitY=0;exitDx=0;exitDy=0;entryX=0;entryY=0.5;entryDx=0;entryDy=0;dashed=1;" edge="1" parent="1" source="tEOXZ-O5XsBAkcaOIRaJ-23" target="tEOXZ-O5XsBAkcaOIRaJ-17">
          <mxGeometry relative="1" as="geometry" />
        </mxCell>
        <mxCell id="tEOXZ-O5XsBAkcaOIRaJ-23" value="Filtrar region" style="ellipse;whiteSpace=wrap;html=1;" vertex="1" parent="1">
          <mxGeometry x="320" y="430" width="120" height="40" as="geometry" />
        </mxCell>
        <mxCell id="tEOXZ-O5XsBAkcaOIRaJ-27" value="&amp;lt;include&amp;gt;" style="text;html=1;align=center;verticalAlign=middle;resizable=0;points=[];autosize=1;strokeColor=none;fillColor=none;" vertex="1" parent="1">
          <mxGeometry x="410" y="380" width="80" height="30" as="geometry" />
        </mxCell>
      </root>
    </mxGraphModel>
  </diagram>
</mxfile>
